<mxfile host="app.diagrams.net" modified="2022-05-09T21:09:41.906Z" agent="5.0 (Windows NT 10.0; Win64; x64) AppleWebKit/537.36 (KHTML, like Gecko) Chrome/101.0.4951.54 Safari/537.36" etag="WyKnBmHR2DUi7yOQuQFd" version="17.4.0" type="github">
  <diagram id="9XE0pU_EqXqOahOZq9vH" name="Page-1">
    <mxGraphModel dx="1178" dy="454" grid="1" gridSize="10" guides="1" tooltips="1" connect="1" arrows="1" fold="1" page="1" pageScale="1" pageWidth="827" pageHeight="1169" math="0" shadow="0">
      <root>
        <mxCell id="0" />
        <mxCell id="1" parent="0" />
        <mxCell id="4WM69Dd30k6qyJ94jEm1-3" value="" style="group" vertex="1" connectable="0" parent="1">
          <mxGeometry x="40" y="140" width="50" height="70" as="geometry" />
        </mxCell>
        <mxCell id="4WM69Dd30k6qyJ94jEm1-1" value="" style="verticalLabelPosition=bottom;html=1;verticalAlign=top;align=center;strokeColor=none;fillColor=#00BEF2;shape=mxgraph.azure.user;" vertex="1" parent="4WM69Dd30k6qyJ94jEm1-3">
          <mxGeometry width="47.5" height="50" as="geometry" />
        </mxCell>
        <mxCell id="4WM69Dd30k6qyJ94jEm1-2" value="Client&lt;br&gt;" style="text;html=1;align=center;verticalAlign=middle;resizable=0;points=[];autosize=1;strokeColor=none;fillColor=none;" vertex="1" parent="4WM69Dd30k6qyJ94jEm1-3">
          <mxGeometry y="50" width="50" height="20" as="geometry" />
        </mxCell>
        <mxCell id="4WM69Dd30k6qyJ94jEm1-4" value="" style="whiteSpace=wrap;html=1;aspect=fixed;" vertex="1" parent="1">
          <mxGeometry x="140" y="40" width="380" height="380" as="geometry" />
        </mxCell>
        <mxCell id="4WM69Dd30k6qyJ94jEm1-8" value="http" style="edgeStyle=orthogonalEdgeStyle;rounded=0;orthogonalLoop=1;jettySize=auto;html=1;" edge="1" parent="1" source="4WM69Dd30k6qyJ94jEm1-6">
          <mxGeometry relative="1" as="geometry">
            <mxPoint x="429" y="97" as="targetPoint" />
            <Array as="points">
              <mxPoint x="280" y="97" />
              <mxPoint x="280" y="97" />
            </Array>
          </mxGeometry>
        </mxCell>
        <mxCell id="4WM69Dd30k6qyJ94jEm1-11" value="http" style="edgeStyle=orthogonalEdgeStyle;rounded=0;orthogonalLoop=1;jettySize=auto;html=1;" edge="1" parent="1" source="4WM69Dd30k6qyJ94jEm1-1" target="4WM69Dd30k6qyJ94jEm1-6">
          <mxGeometry relative="1" as="geometry" />
        </mxCell>
        <mxCell id="4WM69Dd30k6qyJ94jEm1-10" style="edgeStyle=orthogonalEdgeStyle;rounded=0;orthogonalLoop=1;jettySize=auto;html=1;" edge="1" parent="1" source="4WM69Dd30k6qyJ94jEm1-4" target="4WM69Dd30k6qyJ94jEm1-4">
          <mxGeometry relative="1" as="geometry" />
        </mxCell>
        <mxCell id="4WM69Dd30k6qyJ94jEm1-6" value="Frontend" style="aspect=fixed;html=1;points=[];align=center;image;fontSize=12;image=img/lib/azure2/app_services/App_Services.svg;" vertex="1" parent="1">
          <mxGeometry x="170" y="60" width="60" height="60" as="geometry" />
        </mxCell>
        <mxCell id="4WM69Dd30k6qyJ94jEm1-14" style="edgeStyle=orthogonalEdgeStyle;rounded=0;orthogonalLoop=1;jettySize=auto;html=1;" edge="1" parent="1" source="4WM69Dd30k6qyJ94jEm1-13" target="4WM69Dd30k6qyJ94jEm1-7">
          <mxGeometry relative="1" as="geometry" />
        </mxCell>
        <mxCell id="4WM69Dd30k6qyJ94jEm1-13" value="Database" style="verticalLabelPosition=bottom;html=1;verticalAlign=top;align=center;strokeColor=none;fillColor=#00BEF2;shape=mxgraph.azure.sql_database;" vertex="1" parent="1">
          <mxGeometry x="441" y="240" width="37.5" height="50" as="geometry" />
        </mxCell>
        <mxCell id="4WM69Dd30k6qyJ94jEm1-7" value="Backend" style="aspect=fixed;html=1;points=[];align=center;image;fontSize=12;image=img/lib/azure2/app_services/App_Services.svg;" vertex="1" parent="1">
          <mxGeometry x="430" y="70" width="60" height="60" as="geometry" />
        </mxCell>
      </root>
    </mxGraphModel>
  </diagram>
</mxfile>
